<svg width="9" height="8" viewBox="0 0 9 8" fill="none" xmlns="http://www.w3.org/2000/svg">
<path d="M8.85355 4.03556C9.04882 3.8403 9.04882 3.52372 8.85355 3.32845L5.67157 0.146473C5.47631 -0.0487891 5.15973 -0.0487891 4.96447 0.146473C4.7692 0.341735 4.7692 0.658318 4.96447 0.85358L7.79289 3.68201L4.96447 6.51043C4.7692 6.7057 4.7692 7.02228 4.96447 7.21754C5.15973 7.4128 5.47631 7.4128 5.67157 7.21754L8.85355 4.03556ZM0.5 3.18201C0.223858 3.18201 -1.60941e-08 3.40586 0 3.68201C1.60941e-08 3.95815 0.223858 4.18201 0.5 4.18201L0.5 3.68201L0.5 3.18201ZM8.5 3.68201L8.5 3.18201L0.5 3.18201L0.5 3.68201L0.5 4.18201L8.5 4.18201L8.5 3.68201Z" fill="#22964D"/>
</svg>
