<svg width="20" height="24" viewBox="0 0 20 24" fill="none" xmlns="http://www.w3.org/2000/svg">
<path d="M19.99 10.01V19C19.99 21.76 17.75 24 14.99 24H5C3.67 24 2.41 23.48 1.46 22.54C0.52 21.6 0 20.34 0 19V10C0 7.24 2.24 5 5 5H6C6.55 5 7 5.45 7 6C7 6.55 6.55 7 6 7H5C3.35 7 2 8.35 2 10V19C2 19.8 2.31 20.56 2.88 21.12C3.45 21.69 4.2 22 5 22H14.99C16.64 22 17.99 20.65 17.99 19V10.01C17.99 9.21 17.68 8.45 17.11 7.89C16.54 7.33 15.79 7.01 14.99 7.01H14C13.45 7.01 13 6.56 13 6.01C13 5.46 13.45 5.01 14 5.01H14.99H15C16.33 5.01 17.59 5.53 18.53 6.47C19.48 7.41 20 8.67 20 10.01H19.99ZM5.69 12.28C5.29 11.9 4.66 11.91 4.28 12.31C3.9 12.71 3.91 13.34 4.32 13.72L7.89 17.12C8.48 17.71 9.25 18 10.02 18C10.79 18 11.54 17.71 12.12 17.14L15.71 13.73C16.11 13.35 16.13 12.72 15.75 12.32C15.37 11.92 14.74 11.9 14.34 12.29L11.03 15.44V1C11.03 0.45 10.58 0 10.03 0C9.48 0 9.03 0.45 9.03 1V15.43L5.72 12.28H5.69Z" fill="#1F1F1F"/>
</svg>
