<svg width="24" height="24" viewBox="0 0 24 24" fill="none" xmlns="http://www.w3.org/2000/svg">
<path d="M21.99 10.01V19C21.99 21.76 19.75 24 16.99 24H7C5.67 24 4.41 23.48 3.46 22.54C2.52 21.6 2 20.34 2 19V10C2 7.24 4.24 5 7 5H8C8.55 5 9 5.45 9 6C9 6.55 8.55 7 8 7H7C5.35 7 4 8.35 4 10V19C4 19.8 4.31 20.56 4.88 21.12C5.45 21.69 6.2 22 7 22H16.99C18.64 22 19.99 20.65 19.99 19V10.01C19.99 9.21 19.68 8.45 19.11 7.89C18.54 7.33 17.79 7.01 16.99 7.01H16C15.45 7.01 15 6.56 15 6.01C15 5.46 15.45 5.01 16 5.01H16.99H17C18.33 5.01 19.59 5.53 20.53 6.47C21.48 7.41 22 8.67 22 10.01H21.99ZM7.69 12.28C7.29 11.9 6.66 11.91 6.28 12.31C5.9 12.71 5.91 13.34 6.32 13.72L9.89 17.12C10.48 17.71 11.25 18 12.02 18C12.79 18 13.54 17.71 14.12 17.14L17.71 13.73C18.11 13.35 18.13 12.72 17.75 12.32C17.37 11.92 16.74 11.9 16.34 12.29L13.03 15.44V1C13.03 0.45 12.58 0 12.03 0C11.48 0 11.03 0.45 11.03 1V15.43L7.72 12.28H7.69Z" fill="white"/>
</svg>
