<svg width="20" height="24" viewBox="0 0 20 24" fill="none" xmlns="http://www.w3.org/2000/svg">
<path d="M3.279 6.661C2.896 6.263 2.908 5.63 3.306 5.247L7.893 0.833C8.998 -0.273 10.988 -0.287 12.122 0.847L16.694 5.247C17.092 5.63 17.104 6.263 16.721 6.661C16.525 6.865 16.263 6.968 16 6.968C15.75 6.968 15.5 6.875 15.307 6.689L11 2.543V15.968C11 16.52 10.552 16.968 10 16.968C9.448 16.968 9 16.52 9 15.968V2.543L4.693 6.689C4.296 7.072 3.664 7.059 3.279 6.661ZM19 7.968C18.448 7.968 18 8.416 18 8.968V18.968C18 20.622 16.654 21.968 15 21.968H5C3.346 21.968 2 20.622 2 18.968V8.968C2 8.416 1.552 7.968 1 7.968C0.448 7.968 0 8.416 0 8.968V18.968C0 21.725 2.243 23.968 5 23.968H15C17.757 23.968 20 21.725 20 18.968V8.968C20 8.416 19.552 7.968 19 7.968Z" fill="#1F1F1F"/>
</svg>
