<svg width="24" height="24" viewBox="0 0 24 24" fill="none" xmlns="http://www.w3.org/2000/svg">
<path d="M5.279 6.661C4.896 6.263 4.908 5.63 5.306 5.247L9.893 0.833C10.998 -0.273 12.988 -0.287 14.122 0.847L18.694 5.247C19.092 5.63 19.104 6.263 18.721 6.661C18.525 6.865 18.263 6.968 18 6.968C17.75 6.968 17.5 6.875 17.307 6.689L13 2.543V15.968C13 16.52 12.552 16.968 12 16.968C11.448 16.968 11 16.52 11 15.968V2.543L6.693 6.689C6.296 7.072 5.664 7.059 5.279 6.661ZM21 7.968C20.448 7.968 20 8.416 20 8.968V18.968C20 20.622 18.654 21.968 17 21.968H7C5.346 21.968 4 20.622 4 18.968V8.968C4 8.416 3.552 7.968 3 7.968C2.448 7.968 2 8.416 2 8.968V18.968C2 21.725 4.243 23.968 7 23.968H17C19.757 23.968 22 21.725 22 18.968V8.968C22 8.416 21.552 7.968 21 7.968Z" fill="white"/>
</svg>
