<svg width="24" height="24" viewBox="0 0 24 24" fill="none" xmlns="http://www.w3.org/2000/svg">
<path d="M15.707 11.707L13.414 14L15.707 16.293C16.098 16.684 16.098 17.316 15.707 17.707C15.512 17.902 15.256 18 15 18C14.744 18 14.488 17.902 14.293 17.707L12 15.414L9.70698 17.707C9.51198 17.902 9.25598 18 8.99998 18C8.74398 18 8.48798 17.902 8.29298 17.707C7.90198 17.316 7.90198 16.684 8.29298 16.293L10.586 14L8.29298 11.707C7.90198 11.316 7.90198 10.684 8.29298 10.293C8.68398 9.902 9.31598 9.902 9.70698 10.293L12 12.586L14.293 10.293C14.684 9.902 15.316 9.902 15.707 10.293C16.098 10.684 16.098 11.316 15.707 11.707ZM23 5C23 5.553 22.552 6 22 6H21.115L19.839 19.472C19.594 22.053 17.454 24 14.861 24H9.13398C6.54498 24 4.40498 22.057 4.15698 19.479L2.86098 6H2.00098C1.44898 6 1.00098 5.553 1.00098 5C1.00098 4.447 1.44898 4 2.00098 4H6.10198C6.56698 1.721 8.58698 0 11.001 0H13.001C15.415 0 17.436 1.721 17.9 4H22.001C22.553 4 23 4.447 23 5ZM8.17198 4H15.828C15.415 2.836 14.304 2 13 2H11C9.69598 2 8.58498 2.836 8.17198 4ZM19.106 6H4.86998L6.14798 19.287C6.29598 20.834 7.57998 22 9.13398 22H14.861C16.417 22 17.701 20.832 17.848 19.282L19.106 6Z" fill="#1F1F1F"/>
</svg>
