<svg width="24" height="24" viewBox="0 0 24 24" fill="none" xmlns="http://www.w3.org/2000/svg">
<path d="M16.776 11.312C17.156 11.712 17.139 12.345 16.739 12.726L13.187 16.099C12.616 16.662 11.858 16.945 11.099 16.945C10.34 16.945 9.57802 16.663 8.99802 16.096L7.38602 14.631C6.97702 14.259 6.94802 13.626 7.31902 13.218C7.69002 12.81 8.32302 12.78 8.73202 13.151L10.37 14.64C10.784 15.043 11.412 15.041 11.797 14.661L15.362 11.274C15.763 10.894 16.395 10.912 16.776 11.311V11.312ZM23 5C23 5.553 22.553 6 22 6H21.114L19.837 19.472C19.593 22.053 17.453 24 14.86 24H9.13202C6.54302 24 4.40302 22.057 4.15502 19.479L2.85902 6H1.99902C1.44702 6 0.999023 5.553 0.999023 5C0.999023 4.447 1.44702 4 1.99902 4H6.10002C6.56502 1.721 8.58502 0 10.999 0H12.999C15.413 0 17.434 1.721 17.898 4H21.999C22.552 4 23 4.447 23 5ZM8.17202 4H15.828C15.415 2.836 14.304 2 13 2H11C9.69602 2 8.58502 2.836 8.17202 4ZM19.106 6H4.87002L6.14802 19.287C6.29602 20.834 7.58002 22 9.13402 22H14.862C16.418 22 17.701 20.832 17.848 19.283L19.106 6Z" fill="#1F1F1F"/>
</svg>
