<svg width="24" height="24" viewBox="0 0 24 24" fill="none" xmlns="http://www.w3.org/2000/svg">
<path d="M7.49826 -6.55519e-07C5.68728 0.00115917 3.93782 0.65702 2.57271 1.84656C1.2076 3.0361 0.318977 4.67904 0.0708022 6.47221C-0.177372 8.26538 0.231656 10.0878 1.22241 11.6031C2.21317 13.1184 3.71878 14.2244 5.46143 14.717C6.72808 15.0796 8.06879 15.0961 9.34402 14.765L17.2552 22.671C17.6752 23.0937 18.175 23.4288 18.7256 23.657C19.2761 23.8851 19.8665 24.0017 20.4625 24C21.4005 23.9992 22.2998 23.6264 22.963 22.9634C23.6262 22.3005 23.9992 21.4015 24 20.464C24.0015 19.8682 23.8849 19.278 23.6569 18.7275C23.4288 18.1771 23.0939 17.6773 22.6714 17.257L21.9992 16.585C21.623 16.2115 21.1148 16.0014 20.5846 16L18.9979 16L18.9979 15C18.9979 14.4696 18.7871 13.9608 18.4119 13.5858C18.0367 13.2107 17.5278 13 16.9971 13L15.9967 13L15.9967 11.414C15.9974 11.1513 15.946 10.891 15.8454 10.6483C15.7447 10.4055 15.5969 10.1852 15.4105 9.99999L14.7602 9.34999C15.0933 8.07589 15.0771 6.73565 14.7132 5.46999C14.3037 4.02799 13.473 2.74098 12.3274 1.77379C11.1817 0.806592 9.77335 0.203239 8.28258 0.0409996C8.02202 0.0139306 7.76023 0.00024537 7.49826 -6.55519e-07ZM7.49826 13C6.474 13.001 5.46978 12.7162 4.59867 12.1776C3.72756 11.639 3.02412 10.8681 2.56756 9.95161C2.11099 9.0351 1.91942 8.0094 2.0144 6.98996C2.10939 5.97052 2.48716 4.99782 3.10519 4.18135C3.72323 3.36489 4.55698 2.73707 5.51261 2.36858C6.46824 2.00008 7.5078 1.90553 8.51427 2.09558C9.52073 2.28563 10.4542 2.75272 11.2094 3.44429C11.9647 4.13585 12.5119 5.02443 12.7894 6.00999C13.1015 7.09346 13.0666 8.24741 12.6894 9.30999C12.6278 9.48745 12.6175 9.67865 12.6596 9.8617C12.7017 10.0447 12.7946 10.2122 12.9275 10.345L13.9959 11.414L13.9959 13C13.9959 13.5304 14.2067 14.0391 14.5819 14.4142C14.9572 14.7893 15.4661 15 15.9967 15L16.9971 15L16.9971 16C16.9971 16.5304 17.2079 17.0391 17.5832 17.4142C17.9584 17.7893 18.4673 18 18.9979 18L20.5846 18L21.2569 18.672C21.4929 18.9068 21.6801 19.1861 21.8075 19.4937C21.9349 19.8013 22 20.1311 21.9992 20.464C21.9989 20.8711 21.8371 21.2615 21.5492 21.5495C21.2613 21.8374 20.8708 21.9995 20.4635 22C20.1303 22.0008 19.8001 21.9356 19.4922 21.808C19.1844 21.6805 18.9048 21.4932 18.6698 21.257L10.3354 12.927C10.2024 12.7941 10.0346 12.7014 9.85131 12.6595C9.668 12.6176 9.47657 12.6281 9.299 12.69C8.71883 12.8942 8.10834 12.999 7.49326 13L7.49826 13ZM4.99224 5.99999C4.99224 5.80221 5.05092 5.60887 5.16084 5.44443C5.27077 5.27998 5.42701 5.1518 5.60981 5.07612C5.79261 5.00043 5.99376 4.98062 6.18782 5.01921C6.38188 5.05779 6.56014 5.15304 6.70004 5.29289C6.83995 5.43274 6.93523 5.61092 6.97384 5.8049C7.01244 5.99888 6.99262 6.19995 6.91691 6.38268C6.84119 6.5654 6.71296 6.72158 6.54845 6.83146C6.38393 6.94134 6.19051 6.99999 5.99265 6.99999C5.72733 6.99999 5.47287 6.89464 5.28526 6.7071C5.09764 6.51957 4.99224 6.26521 4.99224 5.99999Z" fill="#6B6D82"/>
</svg>
