<svg width="24" height="24" viewBox="0 0 24 24" fill="none" xmlns="http://www.w3.org/2000/svg">
<path d="M13.861 22H8.133C6.579 22 5.296 20.834 5.147 19.287L3.87 6H18.106L18.02 6.905C17.967 7.455 18.371 7.943 18.92 7.995C18.952 7.999 18.984 8 19.016 8C19.526 8 19.961 7.612 20.01 7.095L20.114 6H21C21.553 6 22 5.553 22 5C22 4.447 21.553 4 21 4H16.899C16.434 1.721 14.414 0 12 0H10C7.586 0 5.565 1.721 5.101 4H1C0.447 4 0 4.447 0 5C0 5.553 0.447 6 1 6H1.861L3.157 19.479C3.404 22.057 5.544 24 8.134 24H13.862C14.415 24 14.862 23.553 14.862 23C14.862 22.447 14.415 22 13.862 22H13.861ZM10 2H12C13.304 2 14.415 2.836 14.828 4H7.172C7.585 2.836 8.696 2 10 2ZM24 11C24 11.553 23.553 12 23 12H17C16.447 12 16 11.553 16 11C16 10.447 16.447 10 17 10H23C23.553 10 24 10.447 24 11ZM22 16C22 16.553 21.553 17 21 17H17C16.447 17 16 16.553 16 16C16 15.447 16.447 15 17 15H21C21.553 15 22 15.447 22 16ZM20 21C20 21.553 19.553 22 19 22H17C16.447 22 16 21.553 16 21C16 20.447 16.447 20 17 20H19C19.553 20 20 20.447 20 21Z" fill="white"/>
</svg>
