<svg width="24" height="24" viewBox="0 0 24 24" fill="none" xmlns="http://www.w3.org/2000/svg">
<path d="M12 12C15.309 12 18 9.309 18 6C18 2.691 15.309 0 12 0C8.691 0 6 2.691 6 6C6 9.309 8.691 12 12 12ZM12 2C14.206 2 16 3.794 16 6C16 8.206 14.206 10 12 10C9.794 10 8 8.206 8 6C8 3.794 9.794 2 12 2Z" fill="white"/>
<path d="M12 13C17.2504 13 21.0562 17.5776 21.8465 22.933C21.9311 23.5069 21.4665 24 20.8863 24C20.3647 24 19.9326 23.598 19.8526 23.0826C19.1371 18.4771 15.8936 15 12 15C8.10636 15 4.86287 18.4771 4.14744 23.0826C4.06738 23.598 3.63526 24 3.11368 24C2.53351 24 2.06885 23.5069 2.15355 22.933C2.94379 17.5776 6.74957 13 12 13Z" fill="white"/>
</svg>
