<svg width="36" height="36" viewBox="0 0 36 36" fill="none" xmlns="http://www.w3.org/2000/svg">
<g clip-path="url(#clip0_11_301)">
<path d="M18 0C8.0745 0 0 8.0745 0 18C0 27.9255 8.0745 36 18 36C27.9255 36 36 27.9255 36 18C36 8.0745 27.9255 0 18 0ZM12 31.746V31.5C12 28.191 14.691 25.5 18 25.5C21.309 25.5 24 28.191 24 31.5V31.746C22.161 32.5515 20.133 33 18 33C15.867 33 13.839 32.5515 12 31.746ZM26.8875 30.0765C26.2035 25.788 22.479 22.5 18 22.5C13.521 22.5 9.798 25.788 9.1125 30.0765C5.4075 27.342 3 22.947 3 18C3 9.729 9.729 3 18 3C26.271 3 33 9.729 33 18C33 22.947 30.5925 27.342 26.8875 30.0765ZM18 7.5C14.691 7.5 12 10.191 12 13.5C12 16.809 14.691 19.5 18 19.5C21.309 19.5 24 16.809 24 13.5C24 10.191 21.309 7.5 18 7.5ZM18 16.5C16.3455 16.5 15 15.1545 15 13.5C15 11.8455 16.3455 10.5 18 10.5C19.6545 10.5 21 11.8455 21 13.5C21 15.1545 19.6545 16.5 18 16.5Z" fill="#1F1F1F"/>
</g>
<defs>
<clipPath id="clip0_11_301">
<rect width="36" height="36" fill="white"/>
</clipPath>
</defs>
</svg>
