<svg width="24" height="24" viewBox="0 0 24 24" fill="none" xmlns="http://www.w3.org/2000/svg">
<g clip-path="url(#clip0_11_285)">
<path d="M24 12C24 9.62663 23.2962 7.30655 21.9776 5.33316C20.6591 3.35977 18.7849 1.8217 16.5922 0.913451C14.3995 0.00519943 11.9867 -0.232441 9.65892 0.230582C7.33115 0.693605 5.19295 1.83649 3.51472 3.51472C1.83649 5.19295 0.693605 7.33115 0.230582 9.65892C-0.232441 11.9867 0.00519943 14.3995 0.913451 16.5922C1.8217 18.7849 3.35977 20.6591 5.33316 21.9776C7.30655 23.2962 9.62663 24 12 24C15.1815 23.9966 18.2318 22.7312 20.4815 20.4815C22.7312 18.2318 23.9966 15.1815 24 12ZM2.00001 12C2.00001 10.0222 2.5865 8.08879 3.68531 6.4443C4.78412 4.79981 6.34591 3.51809 8.17317 2.76121C10.0004 2.00433 12.0111 1.8063 13.9509 2.19215C15.8907 2.578 17.6725 3.53041 19.0711 4.92894C20.4696 6.32746 21.422 8.10929 21.8079 10.0491C22.1937 11.9889 21.9957 13.9996 21.2388 15.8268C20.4819 17.6541 19.2002 19.2159 17.5557 20.3147C15.9112 21.4135 13.9778 22 12 22C9.34873 21.9971 6.80689 20.9426 4.93215 19.0679C3.05742 17.1931 2.00292 14.6513 2.00001 12Z" fill="#1F1F1F"/>
<path d="M10.859 19.92C11.233 19.974 11.618 20.001 12.001 20.001C16.412 20.001 20.001 16.412 20.001 12.001C20.001 11.221 19.89 10.451 19.669 9.714C19.51 9.185 18.954 8.882 18.425 9.043C17.896 9.201 17.595 9.758 17.753 10.288C17.918 10.839 18.001 11.415 18.001 12.001C18.001 15.31 15.31 18.001 12.001 18.001C11.713 18.001 11.424 17.98 11.143 17.94C10.601 17.862 10.091 18.241 10.011 18.788C9.933 19.334 10.313 19.841 10.86 19.919L10.859 19.92ZM12.001 6.001C12.287 6.001 12.576 6.022 12.86 6.062C13.41 6.141 13.913 5.759 13.991 5.212C14.068 4.666 13.688 4.159 13.141 4.081C12.764 4.028 12.38 4 12 4C7.589 4 4 7.589 4 12C4 12.777 4.111 13.546 4.331 14.286C4.461 14.72 4.858 15.001 5.29 15.001C5.384 15.001 5.48 14.987 5.575 14.959C6.104 14.802 6.406 14.245 6.249 13.715C6.084 13.16 6 12.583 6 12C6 8.691 8.691 6 12 6L12.001 6.001ZM13.127 14.201H10.923C10.7 14.201 10.489 14.094 10.359 13.914C10.217 13.721 9.926 13.701 9.807 13.701C9.426 13.701 9.179 13.947 9.075 14.178C8.944 14.469 8.989 14.782 9.197 15.018C9.635 15.516 10.263 15.801 10.924 15.801H11.202V16.501C11.202 16.942 11.56 17.301 12.002 17.301C12.444 17.301 12.802 16.942 12.802 16.501V15.801H13.128C13.775 15.801 14.385 15.514 14.801 15.014C15.215 14.515 15.384 13.858 15.264 13.211C15.104 12.358 14.375 11.66 13.452 11.476L10.764 10.937C10.497 10.883 10.303 10.646 10.303 10.375C10.303 10.059 10.56 9.801 10.876 9.801H13.08C13.303 9.801 13.514 9.908 13.644 10.088C13.786 10.281 14.077 10.301 14.196 10.301C14.577 10.301 14.824 10.055 14.928 9.825C15.06 9.534 15.014 9.22 14.807 8.984C14.369 8.487 13.74 8.202 13.079 8.202H12.802V7.502C12.802 7.061 12.444 6.702 12.002 6.702C11.56 6.702 11.202 7.061 11.202 7.502V8.202H10.875C10.229 8.202 9.619 8.489 9.203 8.988C8.789 9.487 8.62 10.144 8.74 10.792C8.899 11.645 9.627 12.342 10.552 12.527L13.24 13.065C13.508 13.119 13.702 13.356 13.702 13.628C13.702 13.944 13.444 14.202 13.128 14.202L13.127 14.201Z" fill="#1F1F1F"/>
</g>
<defs>
<clipPath id="clip0_11_285">
<rect width="24" height="24" fill="white"/>
</clipPath>
</defs>
</svg>
