<svg width="24" height="24" viewBox="0 0 24 24" fill="none" xmlns="http://www.w3.org/2000/svg">
<g clip-path="url(#clip0_34_275)">
<path d="M24 12C24 9.62663 23.2962 7.30655 21.9776 5.33316C20.6591 3.35977 18.7849 1.8217 16.5922 0.913451C14.3995 0.00519943 11.9867 -0.232441 9.65892 0.230582C7.33115 0.693605 5.19295 1.83649 3.51472 3.51472C1.83649 5.19295 0.693605 7.33115 0.230582 9.65892C-0.232441 11.9867 0.00519943 14.3995 0.913451 16.5922C1.8217 18.7849 3.35977 20.6591 5.33316 21.9776C7.30655 23.2962 9.62663 24 12 24C15.1815 23.9966 18.2318 22.7312 20.4815 20.4815C22.7312 18.2318 23.9966 15.1815 24 12ZM2.00001 12C2.00001 10.0222 2.5865 8.08879 3.68531 6.4443C4.78412 4.79981 6.34591 3.51809 8.17317 2.76121C10.0004 2.00433 12.0111 1.8063 13.9509 2.19215C15.8907 2.578 17.6725 3.53041 19.0711 4.92894C20.4696 6.32746 21.422 8.10929 21.8079 10.0491C22.1937 11.9889 21.9957 13.9996 21.2388 15.8268C20.4819 17.6541 19.2002 19.2159 17.5557 20.3147C15.9112 21.4135 13.9778 22 12 22C9.34873 21.9971 6.80689 20.9426 4.93215 19.0679C3.05742 17.1931 2.00292 14.6513 2.00001 12Z" fill="#1F1F1F"/>
<path d="M8.28614 8.48133C8.71372 8.60967 9.17339 8.96608 9.6593 9.3435C10.3856 9.90758 11.2081 10.5475 12.1811 10.5475C13.3273 10.5475 14.3061 9.823 14.7086 8.80217C15.0266 9.00225 15.3322 9.263 15.6186 9.62175C15.7341 9.76583 15.9033 9.8405 16.0748 9.8405C16.2026 9.8405 16.3309 9.7985 16.4388 9.71275C16.6902 9.5115 16.7311 9.14458 16.5298 8.89317C16.0188 8.255 15.4617 7.83617 14.886 7.56142C14.7781 6.13225 13.6137 5 12.1811 5C9.9498 5 8.38705 6.24892 7.81655 6.98683C7.62347 7.23533 7.56572 7.56433 7.66255 7.86533C7.75764 8.16225 7.99039 8.39267 8.28614 8.48133ZM12.1811 6.16667C12.8326 6.16667 13.3903 6.58083 13.6236 7.16592C13.0689 7.06675 12.5165 7.0475 11.9915 7.0475C11.6689 7.0475 11.4081 7.30883 11.4081 7.63083C11.4081 7.95283 11.6689 8.21417 11.9915 8.21417C12.5515 8.21417 13.101 8.23983 13.6295 8.36233C13.4008 8.95733 12.8391 9.38083 12.1811 9.38083C11.6088 9.38083 11.0091 8.91533 10.3745 8.42242C9.91772 8.06717 9.44697 7.70142 8.9348 7.47917C9.52105 6.88592 10.7169 6.16667 12.1811 6.16667ZM10.294 13.6415C9.98305 12.9555 9.42539 12.4358 8.7248 12.1768C8.34739 12.0373 7.95364 11.9907 7.56397 12.021C7.66664 11.741 7.80722 11.4476 7.9933 11.1442C8.16189 10.8695 8.07555 10.5107 7.8008 10.3422C7.52547 10.173 7.16672 10.2599 6.99872 10.5347C6.57522 11.2253 6.32964 11.8822 6.24914 12.4801C5.12797 13.2297 4.67355 14.7113 5.25105 15.9836C6.27247 18.2341 8.6898 18.853 9.40555 18.9889C9.46564 19.0006 9.52514 19.0058 9.58464 19.0058C9.84247 19.0058 10.0904 18.9002 10.2706 18.7083C10.5011 18.4627 10.5874 18.118 10.5016 17.7896C10.4637 17.6379 10.4427 17.4862 10.441 17.3369C10.4363 16.9957 10.4731 16.6427 10.5121 16.2694C10.6014 15.4107 10.6941 14.5223 10.294 13.6421V13.6415ZM9.35189 16.1481C9.31105 16.5383 9.26847 16.942 9.2743 17.3509C9.27605 17.4903 9.28714 17.6309 9.3093 17.7721C8.52705 17.5714 6.99289 16.998 6.3133 15.5012C6.06597 14.9558 6.14297 14.3468 6.45447 13.8853C6.63472 14.2872 6.94272 14.7813 7.4963 15.3349C7.61005 15.4487 7.75939 15.5058 7.90872 15.5058C8.05805 15.5058 8.20739 15.4487 8.32114 15.3349C8.54922 15.1068 8.54922 14.7382 8.32114 14.5101C7.75064 13.9396 7.52605 13.4822 7.4368 13.2092C7.54764 13.1847 7.65964 13.1725 7.77222 13.1725C7.95714 13.1725 8.14264 13.2057 8.32055 13.2711C8.72655 13.421 9.05089 13.7243 9.2323 14.1239C9.50122 14.7166 9.42889 15.4119 9.35189 16.1481ZM18.3533 11.9679C18.2191 11.6827 17.9543 11.4832 17.6451 11.4342C17.3261 11.3852 16.9982 11.4972 16.7725 11.7381C16.4481 12.0834 16.0019 12.3938 15.5288 12.7216C14.7652 13.2513 13.9766 13.799 13.5134 14.6174C13.1517 15.2573 13.0625 15.9987 13.262 16.7052C13.3489 17.0132 13.4947 17.292 13.6756 17.5452C13.3349 17.6916 12.9499 17.7972 12.5147 17.8421C12.1939 17.8753 11.9617 18.1623 11.995 18.4826C12.0259 18.7824 12.2791 19.0052 12.5742 19.0052C13.3734 18.9953 14.0541 18.6885 14.6042 18.3747C15.0254 18.6027 15.4798 18.7124 15.9296 18.7124C16.9031 18.7124 17.8493 18.2055 18.3574 17.3072C19.4371 15.3997 18.862 13.0535 18.3527 11.9673L18.3533 11.9679ZM17.343 16.7332C17.0052 17.3311 16.3326 17.6233 15.684 17.5224C16.1786 16.9869 16.517 16.3767 16.6931 15.794C16.7865 15.486 16.6121 15.1605 16.3035 15.0672C15.9937 14.9738 15.67 15.1482 15.5766 15.4568C15.4267 15.9527 15.1205 16.4783 14.6497 16.9128C14.5307 16.7571 14.4391 16.5809 14.3843 16.3872C14.2706 15.983 14.3213 15.5583 14.5284 15.192C14.8603 14.6052 15.5084 14.156 16.1938 13.68C16.6138 13.3883 17.0455 13.0885 17.4153 12.7438C17.7706 13.673 18.1042 15.3874 17.3424 16.7337L17.343 16.7332Z" fill="#1F1F1F"/>
</g>
<defs>
<clipPath id="clip0_34_275">
<rect width="24" height="24" fill="white"/>
</clipPath>
</defs>
</svg>
