<svg width="36" height="36" viewBox="0 0 36 36" fill="none" xmlns="http://www.w3.org/2000/svg">
<g clip-path="url(#clip0_34_291)">
<path d="M12 34.5C12 35.328 11.328 36 10.5 36H7.5C3.3645 36 0 32.6355 0 28.5V25.5C0 24.672 0.672 24 1.5 24C2.328 24 3 24.672 3 25.5V28.5C3 30.981 5.019 33 7.5 33H10.5C11.328 33 12 33.672 12 34.5ZM36 25.5V28.5C36 32.6355 32.6355 36 28.5 36H25.5C24.672 36 24 35.328 24 34.5C24 33.672 24.672 33 25.5 33H28.5C30.981 33 33 30.981 33 28.5V25.5C33 24.672 33.672 24 34.5 24C35.328 24 36 24.672 36 25.5ZM36 7.5V10.5C36 11.328 35.328 12 34.5 12C33.672 12 33 11.328 33 10.5V7.5C33 5.019 30.981 3 28.5 3H25.5C24.672 3 24 2.328 24 1.5C24 0.672 24.672 0 25.5 0H28.5C32.6355 0 36 3.3645 36 7.5ZM0 10.5V7.5C0 3.3645 3.3645 0 7.5 0H10.5C11.328 0 12 0.672 12 1.5C12 2.328 11.328 3 10.5 3H7.5C5.019 3 3 5.019 3 7.5V10.5C3 11.328 2.328 12 1.5 12C0.672 12 0 11.328 0 10.5Z" fill="#1F1F1F"/>
<path d="M21.75 30C22.992 30 24 28.992 24 27.75C24 26.508 22.992 25.5 21.75 25.5C20.508 25.5 19.5 26.508 19.5 27.75C19.5 28.992 20.508 30 21.75 30Z" fill="#91C650"/>
<path d="M30 21.75C30 20.508 28.992 19.5 27.75 19.5C26.508 19.5 25.5 20.508 25.5 21.75C25.5 22.992 26.508 24 27.75 24C28.992 24 30 22.992 30 21.75Z" fill="#91C650"/>
<path d="M21.75 19.5C20.508 19.5 19.5 20.508 19.5 21.75C19.5 22.992 20.508 24 21.75 24C22.992 24 24 22.992 24 21.75C24 20.508 22.992 19.5 21.75 19.5Z" fill="#91C650"/>
<path fill-rule="evenodd" clip-rule="evenodd" d="M12.75 19.5H9.75C7.683 19.5 6 21.183 6 23.25V26.25C6 28.317 7.683 30 9.75 30H12.75C14.817 30 16.5 28.317 16.5 26.25V23.25C16.5 21.183 14.817 19.5 12.75 19.5ZM12.75 27C13.164 27 13.5 26.664 13.5 26.25V23.25C13.5 22.836 13.164 22.5 12.75 22.5H9.75C9.336 22.5 9 22.836 9 23.25V26.25C9 26.664 9.336 27 9.75 27H12.75Z" fill="#91C650"/>
<path fill-rule="evenodd" clip-rule="evenodd" d="M12.75 6H9.75C7.683 6 6 7.683 6 9.75V12.75C6 14.817 7.683 16.5 9.75 16.5H12.75C14.817 16.5 16.5 14.817 16.5 12.75V9.75C16.5 7.683 14.817 6 12.75 6ZM12.75 13.5C13.164 13.5 13.5 13.164 13.5 12.75V9.75C13.5 9.336 13.164 9 12.75 9H9.75C9.336 9 9 9.336 9 9.75V12.75C9 13.164 9.336 13.5 9.75 13.5H12.75Z" fill="#91C650"/>
<path fill-rule="evenodd" clip-rule="evenodd" d="M23.25 16.5H26.25C28.317 16.5 30 14.817 30 12.75V9.75C30 7.683 28.317 6 26.25 6H23.25C21.183 6 19.5 7.683 19.5 9.75V12.75C19.5 14.817 21.183 16.5 23.25 16.5ZM23.25 9C22.836 9 22.5 9.336 22.5 9.75V12.75C22.5 13.164 22.836 13.5 23.25 13.5H26.25C26.664 13.5 27 13.164 27 12.75V9.75C27 9.336 26.664 9 26.25 9H23.25Z" fill="#91C650"/>
<rect x="3" y="16" width="30" height="4" rx="2" fill="#1F1F1F"/>
</g>
<defs>
<clipPath id="clip0_34_291">
<rect width="36" height="36" fill="white"/>
</clipPath>
</defs>
</svg>
