<svg width="138" height="138" viewBox="0 0 138 138" fill="none" xmlns="http://www.w3.org/2000/svg">
<circle cx="69" cy="69" r="67" stroke="#91C650" stroke-width="4"/>
<circle cx="69" cy="69" r="60" fill="#22964D"/>
<path d="M79.0639 45.096L87.1733 47.2481C87.3848 47.2913 87.5566 47.4641 87.6053 47.6769L89.7432 55.7863C89.8009 56.0244 90.0103 56.1917 90.2538 56.1917C90.4998 56.1917 90.7069 56.0244 90.7622 55.7863L92.9033 47.6769C92.9488 47.4643 93.1216 47.2913 93.3331 47.2481L101.444 45.096C101.681 45.0516 101.849 44.8401 101.849 44.5964C101.849 44.3504 101.681 44.1433 101.444 44.0957L93.3331 41.9446C93.1216 41.8993 92.9488 41.7286 92.9033 41.516L90.7622 33.4065C90.7068 33.1706 90.4996 33 90.2538 33C90.0103 33 89.8007 33.1706 89.7432 33.4065L87.6053 41.516C87.5566 41.7286 87.3849 41.8993 87.1733 41.9446L79.0639 44.0957C78.8245 44.1434 78.6584 44.3505 78.6584 44.5964C78.6584 44.8401 78.8247 45.0517 79.0639 45.096Z" fill="white"/>
<path d="M87.3584 78.9183L83.6774 77.9425C83.5811 77.9203 83.5025 77.8449 83.4814 77.7476L82.511 74.0667C82.4856 73.9593 82.3914 73.8828 82.2796 73.8828C82.1699 73.8828 82.0747 73.9593 82.0481 74.0667L81.0778 77.7476C81.0556 77.845 80.9781 77.9203 80.8818 77.9425L77.202 78.9183C77.0935 78.9394 77.017 79.0347 77.017 79.1454C77.017 79.2562 77.0935 79.3516 77.202 79.3736L80.8818 80.3484C80.9781 80.3683 81.0556 80.4481 81.0778 80.5456L82.0481 84.2242C82.0747 84.3316 82.1699 84.4081 82.2796 84.4081C82.3915 84.4081 82.4856 84.3316 82.511 84.2242L83.4814 80.5456C83.5025 80.4481 83.5811 80.3683 83.6774 80.3484L87.3584 79.3736C87.4647 79.3516 87.5423 79.2562 87.5423 79.1454C87.5422 79.0346 87.4647 78.9394 87.3584 78.9183Z" fill="white"/>
<path d="M38.5035 52.698L44.2978 54.2333C44.4506 54.2655 44.5715 54.3885 44.6079 54.5412L46.1343 60.3355C46.1763 60.5072 46.3259 60.6258 46.4999 60.6258C46.6748 60.6258 46.8233 60.5072 46.8644 60.3355L48.3919 54.5412C48.4241 54.3885 48.5492 54.2655 48.701 54.2333L54.4964 52.698C54.6658 52.6626 54.7865 52.5098 54.7865 52.3369C54.7865 52.1641 54.6658 52.0157 54.4964 51.9803L48.701 50.4427C48.5492 50.4095 48.4241 50.29 48.3919 50.137L46.8644 44.3394C46.8233 44.171 46.675 44.0514 46.4999 44.0514C46.3261 44.0514 46.1765 44.171 46.1343 44.3394L44.6079 50.1371C44.5714 50.29 44.4506 50.4095 44.2978 50.4428L38.5035 51.9804C38.3307 52.0159 38.2122 52.1642 38.2122 52.3371C38.2122 52.5098 38.3307 52.6628 38.5035 52.698Z" fill="white"/>
<path d="M88.9533 71.9387C87.8456 70.6427 86.2628 69.4929 84.311 68.5292H84.3133C80.4208 66.6018 75.0829 65.4222 69.1844 65.4189L69.1678 65.4198V65.4189C65.2942 65.4198 61.6587 65.9283 58.5162 66.8234C55.3736 67.7185 52.7286 68.9945 50.8233 70.5453L50.8265 70.5431C49.5539 71.5777 48.6179 72.7319 48.0984 73.987C47.8014 74.6993 47.6453 75.4502 47.6464 76.2111C47.6464 76.837 48.1538 77.3454 48.7807 77.3454C49.4078 77.3454 49.915 76.837 49.915 76.2111C49.9161 75.7537 50.0026 75.3184 50.1941 74.8531C50.5253 74.0468 51.2021 73.1584 52.2556 72.3054L52.2588 72.3032C53.8273 71.0183 56.2222 69.8308 59.1376 69.0056C62.053 68.1737 65.4936 67.6874 69.1678 67.6885H69.2276C74.8004 67.6897 79.8348 68.8339 83.3041 70.5619L83.3075 70.5631C85.0487 71.4204 86.3924 72.4283 87.2287 73.412C87.6497 73.905 87.9487 74.389 88.1404 74.8531C88.3797 75.4325 89.0421 75.7073 89.6214 75.4679C90.2008 75.2287 90.4755 74.5662 90.2363 73.987C89.9402 73.2712 89.5084 72.5855 88.9533 71.9387Z" fill="white"/>
<path d="M101.514 71.2452C101.035 70.091 100.38 69.0177 99.5905 68.0263C98.8007 67.036 97.877 66.1255 96.8489 65.2881L96.7859 65.2372L96.8468 65.2881C93.7585 62.778 89.6943 60.8595 84.9867 59.5126H84.9856C80.2735 58.1734 74.8979 57.4257 69.1822 57.4257C64.8267 57.4257 60.6705 57.86 56.8536 58.6586C53.0364 59.4573 49.5584 60.6203 46.5587 62.1023L46.5564 62.1035C43.5601 63.59 41.0124 65.4 39.1216 67.6075L39.1559 67.5653L39.1205 67.6075C38.1767 68.7131 37.397 69.926 36.8508 71.2452C36.3036 72.5655 35.999 73.989 36 75.4544V86.9678C35.999 88.4345 36.3036 89.8589 36.8508 91.1792C37.3293 92.3335 37.9841 93.4056 38.7738 94.397C39.5647 95.3884 40.4873 96.2978 41.5152 97.1353L41.5174 97.1364C44.6057 99.6442 48.6686 101.567 53.3763 102.912L53.4016 102.917C58.1086 104.252 63.4753 104.999 69.1822 105H69.1833C73.5376 104.999 77.6936 104.565 81.5108 103.766C85.3279 102.967 88.806 101.803 91.8056 100.322L91.8077 100.32C94.804 98.8333 97.3506 97.0223 99.2426 94.8169L99.2437 94.8148C100.187 93.7115 100.966 92.4998 101.512 91.1794L101.478 91.2602L101.513 91.1794C102.059 89.8589 102.364 88.4345 102.364 86.9679V75.4545C102.364 73.989 102.06 72.5655 101.514 71.2452ZM43.425 92.9638C43.0761 92.6348 42.7504 92.3003 42.4603 91.9624C41.7724 91.156 41.2561 90.3308 40.9116 89.5C40.5671 88.6671 40.3944 87.8286 40.3944 86.9679V81.7485C41.0667 82.5782 41.861 83.3613 42.7593 84.0947C42.9754 84.2685 43.1969 84.4403 43.425 84.6109V92.9638ZM49.7876 96.9748C49.3501 96.7843 48.9192 96.5892 48.5059 96.3833C47.5433 95.9071 46.6571 95.3985 45.8487 94.8681V86.1949C47.055 86.8872 48.373 87.5219 49.7876 88.0935V96.9748ZM57.6665 99.446C55.6705 99.0239 53.7974 98.4955 52.0705 97.8786H52.2134V88.9785C52.7683 89.1623 53.3377 89.3362 53.918 89.5024C55.1188 89.8436 56.3728 90.1425 57.6665 90.403V99.446ZM67.9693 100.592C65.2244 100.537 62.5859 100.287 60.0913 99.8835V90.8271C62.6002 91.2147 65.2388 91.4418 67.9693 91.4951V100.592ZM78.5765 99.8292C75.9933 100.26 73.253 100.53 70.3951 100.586V91.5004C73.2351 91.445 75.979 91.1981 78.5765 90.7859V99.8292ZM86.4555 97.8232C85.6004 98.1334 84.7098 98.4214 83.7826 98.685C82.8876 98.9398 81.955 99.1667 81.0001 99.375V90.3429C82.9198 89.9464 84.7453 89.4524 86.4555 88.8752V97.8232ZM92.8191 94.6618C91.6716 95.4483 90.3511 96.1794 88.8791 96.8439V87.9669C89.588 87.6733 90.2759 87.3653 90.9328 87.0409C91.5896 86.7141 92.2177 86.3718 92.8191 86.0173V94.6618ZM97.9699 86.9678C97.9699 87.8284 97.7972 88.6671 97.4516 89.4999C97.0085 90.5765 96.2653 91.6478 95.2428 92.6746V84.4844H95.0988C96.1045 83.7167 96.9962 82.8981 97.7462 82.022C97.8225 81.9323 97.8957 81.8415 97.9698 81.7506V86.9678H97.9699ZM97.4516 77.9845C96.8535 79.4378 95.7125 80.88 94.0732 82.2148C91.6196 84.2175 88.0606 85.9545 83.7827 87.1695C79.506 88.388 74.5124 89.0914 69.1823 89.0914C61.0618 89.0948 53.7166 87.452 48.5061 84.8677C45.9008 83.5796 43.836 82.0598 42.4603 80.4459C41.7724 79.6405 41.2561 78.8153 40.9116 77.9847C40.5671 77.1516 40.3944 76.3142 40.3944 75.4547C40.3944 74.5952 40.5671 73.7578 40.9116 72.9247C41.5121 71.4704 42.6507 70.0281 44.2913 68.6955C46.746 66.6916 50.3038 64.9538 54.5818 63.7387C58.8586 62.5214 63.8532 61.819 69.1823 61.819C77.3028 61.8145 84.6467 63.4584 89.8574 66.0415C92.4637 67.3287 94.5295 68.8507 95.9032 70.4622C96.5921 71.2676 97.1083 72.0928 97.4517 72.9246C97.7974 73.7576 97.9701 74.5949 97.9701 75.4545C97.9701 76.3142 97.7972 77.1515 97.4516 77.9845Z" fill="white"/>
</svg>
