<svg width="20" height="19" viewBox="0 0 20 19" fill="none" xmlns="http://www.w3.org/2000/svg">
<path d="M19.3925 7.00309C18.6402 5.7712 17.6913 4.67081 16.5833 3.74559L18.9167 1.41226C19.0685 1.25509 19.1525 1.04459 19.1506 0.826092C19.1487 0.607595 19.061 0.398584 18.9065 0.244078C18.752 0.089571 18.543 0.00193018 18.3245 3.15022e-05C18.106 -0.00186718 17.8955 0.0821282 17.7383 0.233927L15.2008 2.77476C13.6278 1.84044 11.8295 1.35348 10 1.36643C4.84085 1.36643 1.90085 4.89809 0.607512 7.00309C0.207952 7.64935 -0.00369263 8.39413 -0.00369263 9.15393C-0.00369263 9.91372 0.207952 10.6585 0.607512 11.3048C1.35981 12.5367 2.30875 13.637 3.41668 14.5623L1.08335 16.8956C1.00375 16.9725 0.940269 17.0644 0.896594 17.1661C0.85292 17.2678 0.829932 17.3771 0.82897 17.4878C0.828009 17.5984 0.849093 17.7081 0.890994 17.8106C0.932895 17.913 0.994772 18.006 1.07302 18.0843C1.15126 18.1625 1.2443 18.2244 1.34672 18.2663C1.44913 18.3082 1.55886 18.3293 1.66951 18.3283C1.78016 18.3273 1.88951 18.3044 1.99118 18.2607C2.09285 18.217 2.18481 18.1535 2.26168 18.0739L4.80501 15.5306C6.37607 16.4648 8.17224 16.9526 10 16.9414C15.1592 16.9414 18.0992 13.4098 19.3925 11.3048C19.7921 10.6585 20.0037 9.91372 20.0037 9.15393C20.0037 8.39413 19.7921 7.64935 19.3925 7.00309ZM2.02751 10.4323C1.79013 10.0481 1.66439 9.60549 1.66439 9.15393C1.66439 8.70236 1.79013 8.25972 2.02751 7.87559C3.13918 6.07059 5.65168 3.03309 10 3.03309C11.3836 3.02534 12.7477 3.35879 13.9717 4.00393L12.2942 5.68143C11.4941 5.15026 10.5349 4.91226 9.57937 5.0078C8.62381 5.10334 7.73073 5.52654 7.05168 6.2056C6.37263 6.88465 5.94942 7.77772 5.85388 8.73329C5.75834 9.68885 5.99635 10.648 6.52751 11.4481L4.60251 13.3731C3.58176 12.5479 2.71071 11.5531 2.02751 10.4323ZM12.5 9.15393C12.5 9.81697 12.2366 10.4529 11.7678 10.9217C11.2989 11.3905 10.6631 11.6539 10 11.6539C9.62877 11.6525 9.26268 11.567 8.92918 11.4039L12.25 8.08309C12.4131 8.41659 12.4986 8.78269 12.5 9.15393ZM7.50001 9.15393C7.50001 8.49088 7.7634 7.855 8.23224 7.38616C8.70109 6.91732 9.33697 6.65393 10 6.65393C10.3713 6.65536 10.7373 6.74083 11.0708 6.90393L7.75001 10.2248C7.58692 9.89126 7.50145 9.52517 7.50001 9.15393ZM17.9725 10.4323C16.8608 12.2373 14.3483 15.2748 10 15.2748C8.61645 15.2825 7.25232 14.9491 6.02835 14.3039L7.70585 12.6264C8.5059 13.1576 9.46509 13.3956 10.4207 13.3001C11.3762 13.2045 12.2693 12.7813 12.9483 12.1023C13.6274 11.4232 14.0506 10.5301 14.1461 9.57457C14.2417 8.619 14.0037 7.65982 13.4725 6.85976L15.3975 4.93476C16.4183 5.75999 17.2893 6.7548 17.9725 7.87559C18.2099 8.25972 18.3356 8.70236 18.3356 9.15393C18.3356 9.60549 18.2099 10.0481 17.9725 10.4323Z" fill="white"/>
</svg>
