<svg width="20" height="20" viewBox="0 0 20 20" fill="none" xmlns="http://www.w3.org/2000/svg">
<g clip-path="url(#clip0_195_11)">
<path d="M19.3925 7.84916C18.6402 6.61727 17.6913 5.51688 16.5834 4.59166L18.9167 2.25833C19.0685 2.10116 19.1525 1.89066 19.1506 1.67216C19.1487 1.45366 19.0611 1.24465 18.9066 1.09015C18.7521 0.93564 18.543 0.848 18.3245 0.846101C18.106 0.844202 17.8955 0.928198 17.7384 1.08L15.2009 3.62083C13.6279 2.68651 11.8296 2.19955 10 2.2125C4.84088 2.2125 1.90088 5.74416 0.607543 7.84916C0.207983 8.49542 -0.00366211 9.2402 -0.00366211 10C-0.00366211 10.7598 0.207983 11.5046 0.607543 12.1508C1.35984 13.3827 2.30878 14.4831 3.41671 15.4083L1.08338 17.7417C1.00378 17.8185 0.940299 17.9105 0.896625 18.0122C0.852951 18.1138 0.829962 18.2232 0.829001 18.3338C0.828039 18.4445 0.849124 18.5542 0.891025 18.6566C0.932925 18.759 0.994803 18.8521 1.07305 18.9303C1.15129 19.0086 1.24433 19.0704 1.34675 19.1123C1.44916 19.1542 1.55889 19.1753 1.66954 19.1744C1.78019 19.1734 1.88954 19.1504 1.99121 19.1067C2.09288 19.0631 2.18484 18.9996 2.26171 18.92L4.80504 16.3767C6.3761 17.3108 8.17227 17.7986 10 17.7875C15.1592 17.7875 18.0992 14.2558 19.3925 12.1508C19.7921 11.5046 20.0037 10.7598 20.0037 10C20.0037 9.2402 19.7921 8.49542 19.3925 7.84916ZM2.02754 11.2783C1.79016 10.8942 1.66442 10.4516 1.66442 10C1.66442 9.54843 1.79016 9.10579 2.02754 8.72166C3.13921 6.91666 5.65171 3.87916 10 3.87916C11.3836 3.87141 12.7477 4.20486 13.9717 4.85L12.2942 6.5275C11.4942 5.99633 10.535 5.75833 9.5794 5.85387C8.62384 5.94941 7.73076 6.37261 7.05171 7.05166C6.37266 7.73072 5.94946 8.62379 5.85391 9.57936C5.75837 10.5349 5.99638 11.4941 6.52754 12.2942L4.60254 14.2192C3.5818 13.3939 2.71074 12.3991 2.02754 11.2783ZM12.5 10C12.5 10.663 12.2367 11.2989 11.7678 11.7678C11.299 12.2366 10.6631 12.5 10 12.5C9.6288 12.4986 9.26271 12.4131 8.92921 12.25L12.25 8.92916C12.4131 9.26266 12.4986 9.62876 12.5 10ZM7.50004 10C7.50004 9.33695 7.76343 8.70107 8.23228 8.23223C8.70112 7.76339 9.337 7.5 10 7.5C10.3713 7.50143 10.7374 7.5869 11.0709 7.75L7.75004 11.0708C7.58695 10.7373 7.50148 10.3712 7.50004 10ZM17.9725 11.2783C16.8609 13.0833 14.3484 16.1208 10 16.1208C8.61648 16.1286 7.25235 15.7951 6.02838 15.15L7.70588 13.4725C8.50593 14.0037 9.46512 14.2417 10.4207 14.1461C11.3762 14.0506 12.2693 13.6274 12.9484 12.9483C13.6274 12.2693 14.0506 11.3762 14.1462 10.4206C14.2417 9.46507 14.0037 8.50588 13.4725 7.70583L15.3975 5.78083C16.4183 6.60606 17.2893 7.60087 17.9725 8.72166C18.2099 9.10579 18.3357 9.54843 18.3357 10C18.3357 10.4516 18.2099 10.8942 17.9725 11.2783Z" fill="#6B6D82"/>
</g>
<defs>
<clipPath id="clip0_195_11">
<rect width="20" height="20" fill="white"/>
</clipPath>
</defs>
</svg>
