<svg width="20" height="20" viewBox="0 0 20 20" fill="none" xmlns="http://www.w3.org/2000/svg">
<g clip-path="url(#clip0_37_351)">
<path d="M19.3925 7.84917C18.1 5.74417 15.16 2.2125 10 2.2125C4.84001 2.2125 1.90001 5.74417 0.607512 7.84917C0.207952 8.49542 -0.00369263 9.2402 -0.00369263 10C-0.00369263 10.7598 0.207952 11.5046 0.607512 12.1508C1.90001 14.2558 4.84001 17.7875 10 17.7875C15.16 17.7875 18.1 14.2558 19.3925 12.1508C19.7921 11.5046 20.0037 10.7598 20.0037 10C20.0037 9.2402 19.7921 8.49542 19.3925 7.84917ZM17.9717 11.2783C16.8617 13.0833 14.3492 16.1208 10 16.1208C5.65085 16.1208 3.13835 13.0833 2.02835 11.2783C1.79096 10.8942 1.66522 10.4516 1.66522 10C1.66522 9.54844 1.79096 9.1058 2.02835 8.72167C3.13835 6.91667 5.65085 3.87917 10 3.87917C14.3492 3.87917 16.8617 6.91333 17.9717 8.72167C18.2091 9.1058 18.3348 9.54844 18.3348 10C18.3348 10.4516 18.2091 10.8942 17.9717 11.2783Z" fill="white"/>
<path d="M10 5.83334C9.17592 5.83334 8.37034 6.07771 7.68514 6.53555C6.99993 6.99339 6.46588 7.64413 6.15051 8.40549C5.83515 9.16685 5.75263 10.0046 5.91341 10.8129C6.07418 11.6211 6.47101 12.3636 7.05373 12.9463C7.63645 13.529 8.37888 13.9258 9.18714 14.0866C9.99539 14.2474 10.8332 14.1649 11.5945 13.8495C12.3559 13.5341 13.0066 13.0001 13.4645 12.3149C13.9223 11.6297 14.1667 10.8241 14.1667 10C14.1654 8.89534 13.7259 7.8363 12.9448 7.05519C12.1637 6.27407 11.1047 5.83466 10 5.83334ZM10 12.5C9.50556 12.5 9.02221 12.3534 8.61109 12.0787C8.19996 11.804 7.87953 11.4135 7.69031 10.9567C7.50109 10.4999 7.45159 9.99723 7.54805 9.51228C7.64451 9.02732 7.88261 8.58187 8.23224 8.23224C8.58188 7.8826 9.02733 7.6445 9.51229 7.54804C9.99724 7.45158 10.4999 7.50108 10.9567 7.6903C11.4135 7.87952 11.804 8.19995 12.0787 8.61108C12.3534 9.0222 12.5 9.50555 12.5 10C12.5 10.663 12.2366 11.2989 11.7678 11.7678C11.2989 12.2366 10.6631 12.5 10 12.5Z" fill="white"/>
</g>
<defs>
<clipPath id="clip0_37_351">
<rect width="20" height="20" fill="white"/>
</clipPath>
</defs>
</svg>
